<?xml version="1.0" encoding="utf-8"?>
<!-- Generator: Adobe Illustrator 28.2.0, SVG Export Plug-In . SVG Version: 6.00 Build 0)  -->
<svg version="1.1" id="Layer_1" xmlns="http://www.w3.org/2000/svg" xmlns:xlink="http://www.w3.org/1999/xlink" x="0px" y="0px"
	 viewBox="0 0 479.2 65.6" style="enable-background:new 0 0 479.2 65.6;" xml:space="preserve">
<style type="text/css">
	.st0{fill:#FFFFFF;}
</style>
<g id="title">
	<g id="path446603">
		<path class="st0" d="M0,33.9h11c1.1,5.8,6.2,8.6,12.8,8.6c6,0,12-1.9,12-6c0-10-33.8-2.2-33.8-21.4C2,5.4,11,0,22.3,0
			c12.8,0,21.6,7.1,22.8,18H34c-1.1-5-4.2-8.6-12.6-8.6c-4.9,0-8.6,2.3-8.6,5.1c0,8.9,33.8,2.7,33.8,22c0,10.2-10.3,15.3-21.4,15.3
			C10.5,51.9,1.2,46,0,33.9z"/>
	</g>
	<path class="st0" d="M73.1,51.2H62.6l-12-39.6h10.5L73.1,51.2z"/>
	<path class="st0" d="M68.7,65.6l16.4-54h10.5l-16.4,54H68.7z"/>
	<g id="path446607">
		<path class="st0" d="M94,37.7h10.6c0.6,3.9,4.3,5.6,10,5.6c5.3,0,8.9-0.8,8.9-3.5c0-7.1-27.7-0.1-27.7-16.9c0-7.7,7.8-12,17.5-12
			c11,0,18.6,5.5,19.9,14.2h-10.4c-0.9-4-3.5-5.8-9.3-5.8c-4.2,0-7.3,1.7-7.3,4c0,6.9,28.2,0.4,28.2,16.5c0,8-9.1,12.1-18.6,12.1
			C103.2,51.9,95,47.2,94,37.7z"/>
	</g>
	<g id="path446609">
		<path class="st0" d="M158.1,20.6c-7.6,0-12.1,3.7-12.1,10.8s4.2,10.8,12.1,10.8c5.9,0,9.9-2.2,11.4-6.6h10.4
			c-1.7,10.7-9.6,16.3-21.9,16.3c-14.4,0-22.2-7.7-22.2-20.5s8.3-20.5,22.2-20.5c12.7,0,20.2,6,21.8,16.1h-10.4
			C168,22.9,164.1,20.6,158.1,20.6z"/>
	</g>
	<g id="path446611">
		<path class="st0" d="M181.8,31.4c0-13.4,8.3-20.5,22.2-20.5s22.2,7.7,22.2,20.5s-8.3,20.5-22.2,20.5
			C189.6,51.9,181.8,44.2,181.8,31.4z M204,42.2c7.6,0,12.1-3.7,12.1-10.8s-4.2-10.8-12.1-10.8s-12.1,3.7-12.1,10.8
			S196.1,42.2,204,42.2z"/>
	</g>
	<g id="path446613">
		<path class="st0" d="M248.1,20.6c-6.4,0-9.4,3.2-9.4,9v21.6h-10.1V11.6h10.1v3.5c2.1-2.7,5.6-4.2,11.6-4.2
			c6.6,0,11.4,2.5,14.3,7.1c2.4-4.6,6.8-7.1,14.6-7.1c10.9,0,17.4,7.1,17.4,18.7v21.6h-10.1V29.6c0-5.5-2.8-9-9.4-9s-9.4,3.2-9.4,9
			v21.6h-10.1V29.6C257.6,24.1,254.7,20.6,248.1,20.6z"/>
	</g>
	<g id="path446615">
		<path class="st0" d="M299.4,31.4c0-13.4,6.8-20.5,20.7-20.5c7.1,0,11.2,1.9,13.5,5.3v-4.6h10.1v39.6h-10.1v-4.7
			c-2.4,3.5-6.5,5.4-13.5,5.4C305.7,51.9,299.4,44.2,299.4,31.4z M321.6,42.2c7.6,0,12.1-3.7,12.1-10.8s-4.2-10.8-12.1-10.8
			s-12.1,3.7-12.1,10.8S313.7,42.2,321.6,42.2z"/>
	</g>
	<g id="path446617">
		<path class="st0" d="M351.6,37.2v-17h-5.2v-8.6h5.2V0.8h10.1v10.8H377v8.6h-15.3v16.6c0,3.9,2.4,5,5.1,5H377v9.4h-12.4
			C358.2,51.2,351.6,48.4,351.6,37.2L351.6,37.2z"/>
	</g>
	<path class="st0" d="M390,11.6v39.6h-10.1V11.6H390z"/>
	<rect x="379.9" y="0.8" class="st0" width="10.1" height="6.5"/>
	<g id="path446621">
		<path class="st0" d="M415.5,20.6c-7.6,0-12.1,3.7-12.1,10.8c0,6.8,4.2,10.8,12.1,10.8c5.9,0,9.9-2.2,11.4-6.6h10.4
			c-1.7,10.7-9.6,16.3-21.9,16.3c-14.4,0-22.2-7.7-22.2-20.5s8.3-20.5,22.2-20.5c12.7,0,20.2,6,21.8,16.1h-10.4
			C425.3,22.9,421.4,20.6,415.5,20.6z"/>
	</g>
	<g id="path446623">
		<path class="st0" d="M438.8,37.7h10.6c0.6,3.9,4.3,5.6,10,5.6c5.3,0,8.9-0.8,8.9-3.5c0-7.1-27.7-0.1-27.7-16.9
			c0-7.7,7.8-12,17.5-12c11,0,18.6,5.5,19.9,14.2h-10.4c-0.9-4-3.5-5.8-9.3-5.8c-4.2,0-7.3,1.7-7.3,4c0,6.9,28.2,0.4,28.2,16.5
			c0,8-9.1,12.1-18.6,12.1C448.1,51.9,439.8,47.2,438.8,37.7L438.8,37.7z"/>
	</g>
</g>
</svg>
