<?xml version="1.0" encoding="utf-8"?>
<!-- Generator: Adobe Illustrator 28.2.0, SVG Export Plug-In . SVG Version: 6.00 Build 0)  -->
<svg version="1.1"
	 id="svg446520" xmlns:rdf="http://www.w3.org/1999/02/22-rdf-syntax-ns#" xmlns:cc="http://creativecommons.org/ns#" xmlns:svg="http://www.w3.org/2000/svg" xmlns:dc="http://purl.org/dc/elements/1.1/"
	 xmlns="http://www.w3.org/2000/svg" xmlns:xlink="http://www.w3.org/1999/xlink" x="0px" y="0px" viewBox="0 0 6250.7 724.4"
	 style="enable-background:new 0 0 6250.7 724.4;" xml:space="preserve">
<style type="text/css">
	.st0{fill:#0037F3;}
</style>
<g id="logo-center" transform="translate(0 0)">
	<g id="title" transform="translate(0 0)">
		
			<g id="path446605" transform="translate(0 280.12) translate(322.9476850000001 61.519999999999996) scale(1) translate(-322.97525 39.6)">
			<path class="st0" d="M0,343.2l307.7-724.4h197L197.1,343.2H0z"/>
		</g>
		<g id="path446619" transform="translate(0 280.12) translate(652.291435 50.72) scale(1) translate(-652.319 50.4)">
			<rect x="721.8" y="-381.2" class="st0" width="188.9" height="86.9"/>
		</g>
	</g>
</g>
<g id="title_00000127023404540314971720000003663274565935065783_">
	<g id="path446603">
		<path d="M960.3,374.3h121.4c12.1,64,68.4,94.9,141.3,94.9c66.2,0,132.5-21,132.5-66.2c0-110.4-373.2-24.3-373.2-236.3
			C982.4,59.7,1081.7,0,1206.5,0c141.3,0,238.5,78.4,251.7,198.7h-122.5c-12.1-55.2-46.4-94.9-139.1-94.9
			c-54.1,0-94.9,25.4-94.9,56.3c0,98.3,373.2,29.8,373.2,242.9c0,112.6-113.7,168.9-236.3,168.9C1076.2,573,973.6,507.9,960.3,374.3
			z"/>
	</g>
	<path d="M1767.3,565.3h-115.9l-132.5-437.2h115.9L1767.3,565.3z"/>
	<path d="M1718.8,724.3l181.1-596.2h115.9l-181.1,596.2H1718.8z"/>
	<g id="path446607">
		<path d="M1998.1,416.3h117c6.6,43.1,47.5,61.8,110.4,61.8c58.5,0,98.3-8.8,98.3-38.6c0-78.4-305.8-1.1-305.8-186.6
			c0-85,86.1-132.5,193.2-132.5c121.4,0,205.3,60.7,219.7,156.8H2316c-9.9-44.2-38.6-64-102.7-64c-46.4,0-80.6,18.8-80.6,44.2
			c0,76.2,311.3,4.4,311.3,182.2c0,88.3-100.5,133.6-205.3,133.6C2099.6,573,2009.1,521.1,1998.1,416.3z"/>
	</g>
	<g id="path446609">
		<path d="M2705.7,227.5c-83.9,0-133.6,40.8-133.6,119.2s46.4,119.2,133.6,119.2c65.1,0,109.3-24.3,125.9-72.9h114.8
			c-18.8,118.1-106,180-241.8,180c-159,0-245.1-85-245.1-226.3s91.6-226.3,245.1-226.3c140.2,0,223,66.2,240.7,177.7h-114.8
			C2815,252.9,2772,227.5,2705.7,227.5z"/>
	</g>
	<g id="path446611">
		<path d="M2967.4,346.7c0-147.9,91.6-226.3,245.1-226.3c153.5,0,245.1,85,245.1,226.3S3365.9,573,3212.5,573
			C3053.5,573,2967.4,488,2967.4,346.7z M3212.5,465.9c83.9,0,133.6-40.8,133.6-119.2s-46.4-119.2-133.6-119.2
			s-133.6,40.8-133.6,119.2S3125.3,465.9,3212.5,465.9z"/>
	</g>
	<g id="path446613">
		<path d="M3699.4,227.5c-70.7,0-103.8,35.3-103.8,99.4v238.5h-111.5V128.1h111.5v38.6c23.2-29.8,61.8-46.4,128.1-46.4
			c72.9,0,125.9,27.6,157.9,78.4c26.5-50.8,75.1-78.4,161.2-78.4c120.3,0,192.1,78.4,192.1,206.4v238.5h-111.5V326.8
			c0-60.7-30.9-99.4-103.8-99.4s-103.8,35.3-103.8,99.4v238.5h-111.5V326.8C3804.2,266.1,3772.2,227.5,3699.4,227.5z"/>
	</g>
	<g id="path446615">
		<path d="M4265.7,346.7c0-147.9,75.1-226.3,228.5-226.3c78.4,0,123.6,21,149,58.5v-50.8h111.5v437.2h-111.5v-51.9
			c-26.5,38.6-71.8,59.6-149,59.6C4335.3,573,4265.7,488,4265.7,346.7z M4510.8,465.9c83.9,0,133.6-40.8,133.6-119.2
			s-46.4-119.2-133.6-119.2s-133.6,40.8-133.6,119.2S4423.6,465.9,4510.8,465.9z"/>
	</g>
	<g id="path446617">
		<path d="M4842,410.7V223.1h-57.4v-94.9h57.4V8.9h111.5v119.2h168.9v94.9h-168.9v183.3c0,43.1,26.5,55.2,56.3,55.2h112.6v103.8
			h-136.9C4914.9,565.3,4842,534.4,4842,410.7L4842,410.7z"/>
	</g>
	<path d="M5265.9,128.1v437.2h-111.5V128.1H5265.9z"/>
	<rect x="5154.4" y="8.9" width="111.5" height="71.8"/>
	<g id="path446621">
		<path d="M5547.5,227.5c-83.9,0-133.6,40.8-133.6,119.2c0,75.1,46.4,119.2,133.6,119.2c65.1,0,109.3-24.3,125.9-72.9h114.8
			c-18.8,118.1-106,180-241.8,180c-159,0-245.1-85-245.1-226.3s91.6-226.3,245.1-226.3c140.2,0,223,66.2,240.7,177.7h-114.8
			C5655.7,252.9,5612.6,227.5,5547.5,227.5z"/>
	</g>
	<g id="path446623">
		<path d="M5804.7,416.3h117c6.6,43.1,47.5,61.8,110.4,61.8c58.5,0,98.3-8.8,98.3-38.6c0-78.4-305.8-1.1-305.8-186.6
			c0-85,86.1-132.5,193.2-132.5c121.4,0,205.3,60.7,219.7,156.8h-114.8c-9.9-44.2-38.6-64-102.7-64c-46.4,0-80.6,18.8-80.6,44.2
			c0,76.2,311.3,4.4,311.3,182.2c0,88.3-100.5,133.6-205.3,133.6C5907.4,573,5815.7,521.1,5804.7,416.3L5804.7,416.3z"/>
	</g>
</g>
</svg>
